<?xml version="1.0" encoding="UTF-8" standalone="no"?>
<!-- Created with Inkscape (http://www.inkscape.org/) -->

<svg
   width="678.422"
   height="478.58984"
   viewBox="0 0 179.49896 126.62697"
   version="1.1"
   id="svg5"
   xml:space="preserve"
   inkscape:version="1.2.2 (b0a8486541, 2022-12-01)"
   sodipodi:docname="rpmlint.svg"
   xmlns:inkscape="http://www.inkscape.org/namespaces/inkscape"
   xmlns:sodipodi="http://sodipodi.sourceforge.net/DTD/sodipodi-0.dtd"
   xmlns="http://www.w3.org/2000/svg"
   xmlns:svg="http://www.w3.org/2000/svg"><sodipodi:namedview
     id="namedview7"
     pagecolor="#ffffff"
     bordercolor="#000000"
     borderopacity="0.25"
     inkscape:showpageshadow="2"
     inkscape:pageopacity="0.0"
     inkscape:pagecheckerboard="0"
     inkscape:deskcolor="#d1d1d1"
     inkscape:document-units="mm"
     showgrid="false"
     inkscape:zoom="0.65427211"
     inkscape:cx="571.62761"
     inkscape:cy="257.53811"
     inkscape:window-width="2560"
     inkscape:window-height="1371"
     inkscape:window-x="0"
     inkscape:window-y="0"
     inkscape:window-maximized="1"
     inkscape:current-layer="layer1" /><defs
     id="defs2" /><g
     inkscape:label="Capa 1"
     inkscape:groupmode="layer"
     id="layer1"
     transform="translate(-28.57345,-63.985242)"><path
       id="path579"
       style="fill:#62a0ea;fill-opacity:1;stroke-width:2.08748;stroke-linejoin:bevel"
       d="m 118.49097,207.50144 a 82.11496,82.11496 0 0 0 -82.112817,82.07044 l 60.270739,-0.37362 a 21.875221,21.875221 0 0 1 3.552238,-11.51971 L 75.689965,243.07084 c -0.125014,-0.1511 -0.363294,-0.45394 -0.641304,-0.9803 -0.183371,-0.34718 -0.415493,-0.77079 -0.507463,-1.56838 -0.09197,-0.79759 0.24374,-2.34892 1.304313,-3.17965 0.511494,-0.40023 1.216011,-0.67691 1.875338,-0.72657 2.146436,-0.16056 2.631075,0.78188 3.077848,1.18752 0.29726,0.2699 0.485345,0.48346 0.606165,0.62787 l 29.084528,30.84722 a 21.875221,21.875221 0 0 1 8.00158,-1.53737 21.875221,21.875221 0 0 1 13.44827,4.6824 l 16.58969,-9.88157 c -13.29293,-14.90435 -35.28289,-12.41339 -39.77794,-10.55026 3.12522,-3.45527 23.53983,-10.20097 45.89901,6.90449 l 13.38006,-7.97006 c -23.20664,-26.0737 -54.47812,-30.81804 -81.116491,-25.17314 24.430811,-9.56851 59.240711,-10.55215 87.237571,21.52737 l 10.47016,-6.23683 a 82.11496,82.11496 0 0 0 -66.13033,-33.54214 z m -14.01827,24.98193 c 0,0 0.187,3.44848 1.31052,4.56303 1.12351,1.11456 4.57336,1.27434 4.57336,1.27434 0,0 -3.44848,0.18701 -4.56303,1.31052 -1.11455,1.12353 -1.27434,4.57337 -1.27434,4.57337 0,0 -0.18699,-3.44848 -1.31051,-4.56304 -1.12352,-1.11455 -4.57337,-1.27434 -4.57337,-1.27434 0,0 3.44848,-0.187 4.56303,-1.31051 1.11456,-1.12352 1.27434,-4.57337 1.27434,-4.57337 z m -44.469633,27.15856 c 0,0 0.145017,2.67066 1.014925,3.53363 0.869909,0.86297 3.541386,0.98599 3.541386,0.98599 0,0 -2.670669,0.14502 -3.533634,1.01492 -0.862972,0.86992 -0.985986,3.54139 -0.985986,3.54139 0,0 -0.145018,-2.67066 -1.014926,-3.53363 -0.869908,-0.86297 -3.541386,-0.98599 -3.541386,-0.98599 0,0 2.670669,-0.14502 3.533635,-1.01493 0.862971,-0.86991 0.985986,-3.54138 0.985986,-3.54138 z m 23.623365,14.29628 c 0,0 0.09433,1.736 0.659908,2.29702 0.56558,0.56114 2.302185,0.64131 2.302185,0.64131 0,0 -1.735952,0.0942 -2.297018,0.6599 -0.561065,0.56553 -0.641304,2.30219 -0.641304,2.30219 0,0 -0.09436,-1.736 -0.659908,-2.29702 -0.565574,-0.56114 -2.302185,-0.6413 -2.302185,-0.6413 0,0 1.735958,-0.0946 2.297017,-0.65991 0.561076,-0.56553 0.641305,-2.30219 0.641305,-2.30219 z" /><path
       id="path1237"
       style="fill:#62a0ea;fill-opacity:1;stroke-width:2.11465;stroke-linejoin:bevel"
       d="m 77.953393,239.71239 c -0.06905,0.005 -0.133821,0.0282 -0.192753,0.0744 -0.471456,0.36929 0.421679,1.42989 0.421679,1.42989 l 31.258551,44.1353 a 9.7585783,9.7585783 0 0 0 -0.86661,4.00492 9.7585783,9.7585783 0 0 0 9.75858,9.75857 9.7585783,9.7585783 0 0 0 9.75857,-9.75857 9.7585783,9.7585783 0 0 0 -9.75857,-9.75858 9.7585783,9.7585783 0 0 0 -2.15439,0.24133 L 79.106811,240.52113 c 0,0 -0.670099,-0.84489 -1.153418,-0.80874 z m 40.379447,46.50053 a 3.1439967,3.1439967 0 0 1 3.14399,3.14399 3.1439967,3.1439967 0 0 1 -3.14399,3.14399 3.1439967,3.1439967 0 0 1 -3.144,-3.14399 3.1439967,3.1439967 0 0 1 3.144,-3.14399 z" /><rect
       style="fill:#62a0ea;fill-opacity:1;stroke-width:1.99999;stroke-linejoin:bevel"
       id="rect1332"
       width="74.242485"
       height="4.2533646"
       x="-29.557165"
       y="305.51419"
       transform="rotate(-30.379227)" /><path
       id="rect1334"
       style="fill:#62a0ea;fill-opacity:1;stroke-width:1.99999;stroke-linejoin:bevel"
       d="m 196.33893,246.31613 -3.14038,1.84122 c -8e-4,4.8e-4 -0.002,6.5e-4 -0.003,0.001 l -57.76236,33.86098 -3.14296,1.84227 1.84072,3.1409 c 5e-4,8.6e-4 10e-4,0.002 0.002,0.003 5.1e-4,8.6e-4 0.001,0.002 0.002,0.003 l 0.30696,0.52348 0.047,-0.0274 c 1.12202,1.34202 3.06882,1.71731 4.63021,0.80202 l 8.50645,-4.98626 23.22908,4.12791 0.73339,-0.43804 19.76985,33.78141 c 1.31226,2.2423 4.17384,2.9912 6.41615,1.67896 l 0.16847,-0.0987 c 2.24235,-1.31217 2.99121,-4.17383 1.67896,-6.41615 l -19.81274,-33.85581 0.89321,-0.53288 7.04246,-21.76457 9.13743,-5.35626 c 1.56147,-0.91535 2.18475,-2.79709 1.56167,-4.43177 l 0.0475,-0.0279 -0.3085,-0.52606 z" /><g
       aria-label="rpmlint"
       id="text5107"
       style="font-weight:bold;font-size:28.1241px;font-family:'Source Code Pro';-inkscape-font-specification:'Source Code Pro Bold';letter-spacing:0px;stroke-width:17.7161;stroke-linejoin:bevel"
       transform="matrix(1.079111,0,0,1.079111,-1.0028127,131.35755)"><path
         d="m 46.533799,155.87729 q -0.645426,-0.30212 -1.290852,-0.43944 -0.631694,-0.15106 -1.27712,-0.15106 -1.895081,0 -2.925016,1.22219 -1.016203,1.20846 -1.016203,3.47431 v 7.08596 h -4.916224 v -15.38037 h 4.916224 v 2.52678 q 0.947541,-1.51058 2.169731,-2.1972 1.235922,-0.70035 2.952481,-0.70035 0.247184,0 0.535566,0.0275 0.288382,0.0137 0.837681,0.0824 z"
         style="font-family:sans-serif;-inkscape-font-specification:'sans-serif Bold';fill:#62a0ea;fill-opacity:1;stroke:#ffffff;stroke-width:0.79375;stroke-linecap:round;stroke-linejoin:round;stroke-dasharray:none;stroke-opacity:1"
         id="path5885" /><path
         d="m 53.894403,164.84459 v 8.07469 h -4.916224 v -21.2304 h 4.916224 v 2.25213 q 1.016203,-1.34578 2.252125,-1.97748 1.235923,-0.64542 2.842622,-0.64542 2.842621,0 4.66904,2.26585 1.826418,2.25213 1.826418,5.80884 0,3.55671 -1.826418,5.82257 -1.826419,2.25212 -4.66904,2.25212 -1.606699,0 -2.842622,-0.63169 -1.235922,-0.64543 -2.252125,-1.99121 z m 3.268328,-9.95604 q -1.579234,0 -2.430647,1.16726 -0.837681,1.15353 -0.837681,3.33699 0,2.18346 0.837681,3.35072 0.851413,1.15353 2.430647,1.15353 1.579234,0 2.403183,-1.15353 0.83768,-1.15353 0.83768,-3.35072 0,-2.1972 -0.83768,-3.35072 -0.823949,-1.15353 -2.403183,-1.15353 z"
         style="font-family:sans-serif;-inkscape-font-specification:'sans-serif Bold';fill:#62a0ea;fill-opacity:1;stroke:#ffffff;stroke-width:0.79375;stroke-linecap:round;stroke-linejoin:round;stroke-dasharray:none;stroke-opacity:1"
         id="path5887" /><path
         d="m 83.364283,154.24312 q 0.933808,-1.42818 2.210928,-2.16973 1.290852,-0.75528 2.828889,-0.75528 2.650366,0 4.037346,1.63416 1.386979,1.63416 1.386979,4.75143 v 9.36555 h -4.943689 v -8.01976 q 0.01373,-0.17853 0.01373,-0.37078 0.01373,-0.19225 0.01373,-0.5493 0,-1.63416 -0.480636,-2.36198 -0.480637,-0.74156 -1.55177,-0.74156 -1.400712,0 -2.16973,1.15353 -0.755286,1.15353 -0.782751,3.33699 v 7.55286 H 78.98362 v -8.01976 q 0,-2.55424 -0.439439,-3.28206 -0.439439,-0.74156 -1.565502,-0.74156 -1.414444,0 -2.183463,1.16726 -0.769018,1.15353 -0.769018,3.30953 v 7.56659 h -4.94369 v -15.38037 h 4.94369 v 2.25213 q 0.906343,-1.30459 2.073603,-1.96375 1.180992,-0.65915 2.595437,-0.65915 1.592966,0 2.815156,0.76901 1.22219,0.76902 1.853884,2.156 z"
         style="font-family:sans-serif;-inkscape-font-specification:'sans-serif Bold';fill:#62a0ea;fill-opacity:1;stroke:#ffffff;stroke-width:0.79375;stroke-linecap:round;stroke-linejoin:round;stroke-dasharray:none;stroke-opacity:1"
         id="path5889" /><path
         d="m 98.41507,145.70152 h 4.91622 v 21.36773 h -4.91622 z"
         style="font-family:sans-serif;-inkscape-font-specification:'sans-serif Bold';fill:#62a0ea;fill-opacity:1;stroke:#ffffff;stroke-width:0.79375;stroke-linecap:round;stroke-linejoin:round;stroke-dasharray:none;stroke-opacity:1"
         id="path5891" /><path
         id="path5893"
         style="font-family:sans-serif;-inkscape-font-specification:'sans-serif Bold';fill:#62a0ea;fill-opacity:1;stroke:#ffffff;stroke-width:0.79375;stroke-linecap:round;stroke-linejoin:round;stroke-dasharray:none;stroke-opacity:1"
         d="m 108.05542,151.68874 v 15.38045 h 4.91598 v -15.38045 z" /><path
         d="m 133.15822,157.7037 v 9.36555 h -4.94369 v -1.52431 -5.64404 q 0,-1.99121 -0.0961,-2.74649 -0.0824,-0.75529 -0.30211,-1.11233 -0.28838,-0.48064 -0.78275,-0.74156 -0.49437,-0.27465 -1.12606,-0.27465 -1.53804,0 -2.41692,1.19473 -0.87888,1.18099 -0.87888,3.28206 v 7.56659 h -4.91622 v -15.38037 h 4.91622 v 2.25213 q 1.11233,-1.34578 2.36199,-1.97748 1.24965,-0.64542 2.76022,-0.64542 2.6641,0 4.03735,1.63416 1.38698,1.63416 1.38698,4.75143 z"
         style="font-family:sans-serif;-inkscape-font-specification:'sans-serif Bold';fill:#62a0ea;fill-opacity:1;stroke:#ffffff;stroke-width:0.79375;stroke-linecap:round;stroke-linejoin:round;stroke-dasharray:none;stroke-opacity:1"
         id="path5895" /><path
         d="m 143.0868,147.32196 v 4.36692 h 5.06728 v 3.51551 h -5.06728 v 6.52293 q 0,1.07113 0.4257,1.45564 0.42571,0.37078 1.6891,0.37078 h 2.52677 v 3.51551 h -4.21587 q -2.91128,0 -4.13347,-1.20846 -1.20846,-1.22219 -1.20846,-4.13347 v -6.52293 h -2.44438 v -3.51551 h 2.44438 v -4.36692 z"
         style="font-family:sans-serif;-inkscape-font-specification:'sans-serif Bold';fill:#62a0ea;fill-opacity:1;stroke:#ffffff;stroke-width:0.79375;stroke-linecap:round;stroke-linejoin:round;stroke-dasharray:none;stroke-opacity:1"
         id="path5897" /></g><g
       id="g1538"
       transform="translate(-204.08817,5.9843623)"><path
         id="path579-3"
         style="fill:#62a0ea;fill-opacity:1;stroke-width:2.08748;stroke-linejoin:bevel"
         d="m 322.57914,63.506678 a 82.11496,82.11496 0 0 0 -82.11282,82.070452 l 60.27074,-0.37362 A 21.875221,21.875221 0 0 1 304.2893,133.6838 L 279.77813,99.076082 c -0.12501,-0.1511 -0.36329,-0.45394 -0.6413,-0.9803 -0.18337,-0.34718 -0.41549,-0.77079 -0.50746,-1.56838 -0.092,-0.79759 0.24374,-2.34892 1.30431,-3.17965 0.51149,-0.40023 1.21601,-0.67691 1.87534,-0.72657 2.14643,-0.16056 2.63107,0.78188 3.07785,1.18752 0.29726,0.2699 0.48534,0.48346 0.60616,0.62787 l 29.08453,30.847228 a 21.875221,21.875221 0 0 1 8.00158,-1.53737 21.875221,21.875221 0 0 1 13.44827,4.6824 l 16.58969,-9.88157 c -13.29293,-14.90435 -35.28289,-12.41339 -39.77794,-10.55026 3.12522,-3.45527 23.53983,-10.200978 45.89901,6.90449 l 13.38006,-7.97006 C 348.91159,80.857722 317.64011,76.113382 291.00174,81.758282 c 24.43081,-9.56851 59.24071,-10.55215 87.23757,21.527378 l 10.47016,-6.236838 A 82.11496,82.11496 0 0 0 322.57914,63.506678 Z m -14.01827,24.981934 c 0,0 0.187,3.44848 1.31052,4.56303 1.12351,1.11456 4.57336,1.27434 4.57336,1.27434 0,0 -3.44848,0.18701 -4.56303,1.31052 -1.11455,1.12353 -1.27434,4.573368 -1.27434,4.573368 0,0 -0.18699,-3.448478 -1.31051,-4.563038 -1.12352,-1.11455 -4.57337,-1.27434 -4.57337,-1.27434 0,0 3.44848,-0.187 4.56303,-1.31051 1.11456,-1.12353 1.27434,-4.57337 1.27434,-4.57337 z m -44.46963,27.158568 c 0,0 0.14501,2.67066 1.01492,3.53363 0.86991,0.86297 3.54139,0.98599 3.54139,0.98599 0,0 -2.67067,0.14502 -3.53364,1.01492 -0.86297,0.86992 -0.98598,3.54139 -0.98598,3.54139 0,0 -0.14502,-2.67066 -1.01493,-3.53363 -0.86991,-0.86297 -3.54138,-0.98599 -3.54138,-0.98599 0,0 2.67066,-0.14502 3.53363,-1.01493 0.86297,-0.86991 0.98599,-3.54138 0.98599,-3.54138 z m 23.62336,14.29628 c 0,0 0.0943,1.736 0.65991,2.29702 0.56558,0.56114 2.30218,0.64131 2.30218,0.64131 0,0 -1.73595,0.0942 -2.29701,0.6599 -0.56107,0.56553 -0.64131,2.30219 -0.64131,2.30219 0,0 -0.0944,-1.736 -0.65991,-2.29702 -0.56557,-0.56114 -2.30218,-0.6413 -2.30218,-0.6413 0,0 1.73596,-0.0946 2.29702,-0.65991 0.56107,-0.56553 0.6413,-2.30219 0.6413,-2.30219 z" /><path
         id="path1237-6"
         style="fill:#62a0ea;fill-opacity:1;stroke-width:2.11465;stroke-linejoin:bevel"
         d="m 282.08742,95.716942 c -0.0154,-5.4e-4 -0.0309,-6.1e-4 -0.046,5.1e-4 -0.0691,0.005 -0.13382,0.0282 -0.19275,0.0744 -0.47146,0.36929 0.42168,1.42989 0.42168,1.42989 l 33.49086,46.990058 c 1.31075,-2.75983 3.8269,-4.75608 6.81251,-5.40484 L 283.19484,96.526192 c 0,0 -0.62871,-0.79256 -1.10743,-0.80925 z m 40.25442,42.532318 c -3.98428,-2e-4 -7.21423,3.22975 -7.21404,7.21403 9e-5,3.98408 3.22996,7.21372 7.21404,7.21352 3.98388,-10e-5 7.21342,-3.22964 7.21351,-7.21352 1.9e-4,-3.98407 -3.22944,-7.21393 -7.21351,-7.21403 z m 0.0791,3.96875 c 1.73638,0 3.144,1.40762 3.144,3.144 0,1.73638 -1.40762,3.14399 -3.144,3.14399 -1.73638,0 -3.14399,-1.40761 -3.14399,-3.14399 0,-1.73638 1.40761,-3.144 3.14399,-3.144 z"
         sodipodi:nodetypes="sccccccscccccsssss" /><rect
         style="fill:#62a0ea;fill-opacity:1;stroke-width:1.99999;stroke-linejoin:bevel"
         id="rect1332-7"
         width="74.242485"
         height="4.2533646"
         x="219.33028"
         y="284.50201"
         transform="rotate(-30.379227)" /><path
         id="rect1334-5"
         style="fill:#62a0ea;fill-opacity:1;stroke-width:1.99999;stroke-linejoin:bevel"
         d="m 400.4271,102.32137 -3.14038,1.84123 c -8e-4,4.8e-4 -0.002,6.5e-4 -0.003,0.001 l -57.76236,33.86098 -3.14296,1.84227 1.84072,3.1409 c 5e-4,8.6e-4 0.001,0.002 0.002,0.003 5.1e-4,8.6e-4 0.001,0.002 0.002,0.003 l 0.30696,0.52348 0.047,-0.0274 c 1.12202,1.34202 3.06882,1.71731 4.63021,0.80202 l 8.50645,-4.98626 23.22908,4.12791 0.73339,-0.43804 19.76985,33.78141 c 1.31226,2.2423 4.17384,2.9912 6.41615,1.67896 l 0.16847,-0.0987 c 2.24235,-1.31217 2.99121,-4.17383 1.67896,-6.41615 l -19.81274,-33.85581 0.89321,-0.53288 7.04246,-21.76457 9.13743,-5.35626 c 1.56147,-0.91535 2.18475,-2.79709 1.56167,-4.43177 l 0.0475,-0.0279 -0.3085,-0.52606 z" /><path
         d="m 253.30049,155.57169 q -0.69648,-0.32602 -1.39297,-0.4742 -0.68167,-0.16301 -1.37815,-0.16301 -2.04501,0 -3.15642,1.31888 -1.0966,1.30406 -1.0966,3.74916 v 7.64654 h -5.30515 v -16.59713 h 5.30515 v 2.72668 q 1.02251,-1.63008 2.34139,-2.37102 1.33369,-0.75576 3.18605,-0.75576 0.26674,0 0.57794,0.0297 0.31119,0.0148 0.90395,0.0889 z"
         style="font-weight:bold;font-size:28.1241px;font-family:sans-serif;-inkscape-font-specification:'sans-serif Bold';letter-spacing:0px;fill:#62a0ea;fill-opacity:1;stroke:none;stroke-width:0.856544;stroke-linecap:round;stroke-linejoin:round;stroke-dasharray:none;stroke-opacity:1"
         id="path5885-5" /><path
         d="m 261.2434,165.2484 v 8.71349 h -5.30515 v -22.90996 h 5.30515 v 2.4303 q 1.0966,-1.45224 2.4303,-2.13392 1.33369,-0.69648 3.0675,-0.69648 3.0675,0 5.03841,2.4451 1.97091,2.4303 1.97091,6.26839 0,3.83808 -1.97091,6.2832 -1.97091,2.43028 -5.03841,2.43028 -1.73381,0 -3.0675,-0.68166 -1.3337,-0.69649 -2.4303,-2.14874 z m 3.52689,-10.74367 q -1.70417,0 -2.62294,1.25961 -0.90395,1.24478 -0.90395,3.60098 0,2.35619 0.90395,3.6158 0.91877,1.24478 2.62294,1.24478 1.70417,0 2.5933,-1.24478 0.90395,-1.24479 0.90395,-3.6158 0,-2.37102 -0.90395,-3.6158 -0.88913,-1.24479 -2.5933,-1.24479 z"
         style="font-weight:bold;font-size:28.1241px;font-family:sans-serif;-inkscape-font-specification:'sans-serif Bold';letter-spacing:0px;fill:#62a0ea;fill-opacity:1;stroke:none;stroke-width:0.856544;stroke-linecap:round;stroke-linejoin:round;stroke-dasharray:none;stroke-opacity:1"
         id="path5887-6" /><path
         d="m 293.04467,153.80824 q 1.00769,-1.54116 2.38584,-2.34138 1.39297,-0.81503 3.05269,-0.81503 2.86004,0 4.35674,1.76344 1.49671,1.76344 1.49671,5.12732 v 10.10647 h -5.33479 v -8.65421 q 0.0148,-0.19266 0.0148,-0.40011 0.0148,-0.20746 0.0148,-0.59276 0,-1.76344 -0.51866,-2.54884 -0.51866,-0.80022 -1.67453,-0.80022 -1.51153,0 -2.34138,1.24478 -0.81504,1.24479 -0.84468,3.60099 v 8.15037 h -5.33479 v -8.65421 q 0,-2.75631 -0.4742,-3.54171 -0.4742,-0.80022 -1.68935,-0.80022 -1.52634,0 -2.3562,1.2596 -0.82986,1.24479 -0.82986,3.57135 v 8.16519 h -5.33479 v -16.59713 h 5.33479 v 2.4303 q 0.97805,-1.4078 2.23765,-2.1191 1.27442,-0.7113 2.80077,-0.7113 1.71898,0 3.03786,0.82985 1.31888,0.82986 2.00055,2.32656 z"
         style="font-weight:bold;font-size:28.1241px;font-family:sans-serif;-inkscape-font-specification:'sans-serif Bold';letter-spacing:0px;fill:#62a0ea;fill-opacity:1;stroke:none;stroke-width:0.856544;stroke-linecap:round;stroke-linejoin:round;stroke-dasharray:none;stroke-opacity:1"
         id="path5889-2" /><path
         d="m 309.28614,144.59091 h 5.30515 v 23.05815 h -5.30515 z"
         style="font-weight:bold;font-size:28.1241px;font-family:sans-serif;-inkscape-font-specification:'sans-serif Bold';letter-spacing:0px;fill:#62a0ea;fill-opacity:1;stroke:none;stroke-width:0.856544;stroke-linecap:round;stroke-linejoin:round;stroke-dasharray:none;stroke-opacity:1"
         id="path5891-9" /><path
         id="path5893-1"
         style="font-weight:bold;font-size:28.1241px;font-family:sans-serif;-inkscape-font-specification:'sans-serif Bold';letter-spacing:0px;fill:#62a0ea;fill-opacity:1;stroke:none;stroke-width:0.856544;stroke-linecap:round;stroke-linejoin:round;stroke-dasharray:none;stroke-opacity:1"
         d="m 319.68915,151.05178 v 16.59721 h 5.30489 v -16.59721 z" /><path
         d="m 346.77786,157.54259 v 10.10647 h -5.33479 v -1.6449 -6.09055 q 0,-2.14873 -0.1037,-2.96376 -0.0889,-0.81505 -0.32601,-1.20033 -0.3112,-0.51866 -0.84468,-0.80023 -0.53348,-0.29637 -1.21514,-0.29637 -1.65972,0 -2.60813,1.28924 -0.94841,1.27442 -0.94841,3.54171 v 8.16519 h -5.30514 v -16.59713 h 5.30514 v 2.4303 q 1.20033,-1.45224 2.54885,-2.13392 1.34852,-0.69648 2.97859,-0.69648 2.87486,0 4.35675,1.76344 1.4967,1.76344 1.4967,5.12732 z"
         style="font-weight:bold;font-size:28.1241px;font-family:sans-serif;-inkscape-font-specification:'sans-serif Bold';letter-spacing:0px;fill:#62a0ea;fill-opacity:1;stroke:none;stroke-width:0.856544;stroke-linecap:round;stroke-linejoin:round;stroke-dasharray:none;stroke-opacity:1"
         id="path5895-2" /><path
         d="m 357.4919,146.33954 v 4.71239 h 5.46816 v 3.79363 h -5.46816 v 7.03896 q 0,1.15587 0.45938,1.5708 0.45939,0.40011 1.82272,0.40011 h 2.72667 v 3.79363 h -4.54939 q -3.1416,0 -4.46048,-1.30406 -1.30406,-1.31888 -1.30406,-4.46048 v -7.03896 h -2.63776 v -3.79363 h 2.63776 v -4.71239 z"
         style="font-weight:bold;font-size:28.1241px;font-family:sans-serif;-inkscape-font-specification:'sans-serif Bold';letter-spacing:0px;fill:#62a0ea;fill-opacity:1;stroke:none;stroke-width:0.856544;stroke-linecap:round;stroke-linejoin:round;stroke-dasharray:none;stroke-opacity:1"
         id="path5897-7" /></g></g></svg>
